
<svg version="1.0" xmlns="http://www.w3.org/2000/svg"
 width="1713.000000pt" height="486.000000pt" viewBox="0 0 1713.000000 486.000000"
 preserveAspectRatio="xMidYMid meet">

<g transform="translate(0.000000,486.000000) scale(0.100000,-0.100000)"
fill="#bababa" stroke="bababa">
<path d="M6713 3608 c-13 -6 -25 -19 -28 -29 -7 -23 -23 -24 -49 -4 -32 24
-81 19 -105 -11 -11 -14 -21 -30 -24 -37 -2 -8 -14 -6 -39 6 -52 25 -100 4
-110 -48 -4 -21 -17 -22 -70 -9 -33 8 -78 -32 -78 -70 0 -27 -17 -38 -42 -25
-39 21 -98 -30 -98 -84 0 -26 -3 -29 -27 -24 -54 10 -99 -37 -91 -94 3 -21 -2
-24 -29 -27 -49 -5 -77 -45 -69 -99 5 -40 4 -43 -18 -43 -38 0 -69 -32 -69
-71 0 -19 4 -44 8 -56 6 -19 4 -23 -13 -23 -46 0 -82 -91 -47 -120 8 -7 15
-19 15 -26 0 -8 -7 -14 -15 -14 -48 0 -73 -87 -36 -129 19 -21 19 -22 -10 -51
-37 -37 -38 -75 -2 -112 l27 -28 -22 -23 c-39 -41 -21 -127 26 -127 17 0 15
-25 -3 -40 -8 -7 -15 -29 -15 -50 0 -37 17 -60 54 -74 14 -5 17 -12 11 -29
-24 -76 -16 -99 43 -124 26 -11 32 -18 27 -31 -19 -45 -17 -62 13 -92 18 -17
41 -30 55 -30 23 0 25 -3 20 -38 -7 -52 20 -84 73 -87 37 -3 39 -5 36 -33 -2
-20 5 -39 22 -58 19 -23 32 -29 65 -28 38 1 41 0 41 -26 0 -50 61 -85 115 -67
17 6 23 1 30 -25 6 -20 22 -39 42 -51 30 -17 35 -17 64 -3 34 17 49 14 49 -10
0 -43 91 -73 120 -39 15 19 40 20 40 2 0 -21 32 -46 67 -53 24 -5 36 -1 52 15
27 27 35 26 65 -4 34 -33 69 -32 108 5 31 30 31 30 50 10 27 -29 64 -35 94
-15 15 9 29 26 31 36 6 23 21 24 47 4 42 -31 98 -14 115 36 8 25 15 30 28 24
48 -21 82 -17 108 10 14 16 25 36 25 46 0 16 6 17 48 12 55 -6 79 13 91 69 6
27 11 32 30 30 57 -9 107 37 99 91 -3 19 2 22 34 25 52 4 82 43 74 94 -6 37
-5 38 23 38 49 0 92 61 71 100 -15 28 -12 37 15 44 57 14 82 77 49 124 -14 21
-14 23 9 31 50 19 75 93 42 121 -21 17 -19 24 15 58 36 36 40 80 10 107 -25
23 -25 33 -1 59 11 12 23 33 26 48 6 23 1 33 -25 60 -26 26 -30 35 -21 47 41
58 37 106 -12 129 -32 15 -32 19 -11 61 21 42 8 73 -41 102 -30 18 -33 24 -24
40 5 11 9 34 7 52 -3 27 -10 36 -49 55 -45 22 -46 24 -36 52 9 22 7 33 -7 54
-18 29 -61 50 -83 42 -10 -4 -13 6 -13 39 0 35 -5 47 -26 64 -15 12 -41 21
-60 21 -31 0 -34 3 -34 30 0 20 -9 40 -25 56 -21 21 -34 25 -68 22 -38 -3 -42
-1 -43 21 -1 14 -14 36 -29 49 -28 24 -55 26 -97 7 -13 -5 -18 -3 -18 10 0 25
-55 75 -82 75 -13 0 -32 -7 -42 -15 -24 -19 -36 -19 -36 -2 0 8 -11 24 -25 37
-30 28 -77 30 -106 4 -20 -18 -21 -18 -37 3 -19 23 -53 43 -76 43 -8 0 -29
-12 -46 -26 l-31 -27 -22 21 c-28 26 -66 34 -94 20z m145 -600 l-3 -293 -43 0
-43 0 -105 250 c-58 138 -107 260 -110 271 -5 19 1 23 63 37 105 25 104 25
176 26 l67 1 -2 -292z m144 278 c67 -13 188 -52 188 -61 0 -10 -213 -521 -221
-532 -7 -8 -20 -7 -49 4 l-40 16 0 294 0 293 24 0 c13 0 57 -6 98 -14z m-370
-311 c59 -142 108 -262 108 -266 0 -5 -17 -17 -38 -28 l-39 -20 -208 209
c-238 239 -226 204 -102 286 73 49 146 85 162 81 5 -2 58 -120 117 -262z m668
194 c34 -22 87 -63 117 -91 l54 -52 -203 -203 c-112 -112 -207 -203 -213 -203
-5 1 -23 11 -39 25 l-29 23 93 229 c129 317 128 313 143 313 8 0 42 -18 77
-41z m-857 -317 l207 -208 -32 -31 -33 -32 -264 109 c-145 60 -267 112 -271
117 -15 16 152 253 178 253 4 0 101 -94 215 -208z m1093 96 c53 -71 118 -199
106 -209 -11 -10 -513 -219 -526 -219 -6 1 -19 17 -28 38 l-18 37 207 207
c115 115 209 208 210 208 2 0 24 -28 49 -62z m-1255 -264 c129 -53 248 -102
266 -109 l32 -14 -16 -40 -16 -41 -232 0 c-128 0 -260 -3 -294 -6 l-61 -7 0
39 c0 74 57 274 78 274 5 0 114 -43 243 -96z m1402 -50 c9 -38 20 -106 24
-151 l6 -83 -297 0 -297 0 3 46 3 46 260 109 c143 59 265 107 270 106 6 -2 18
-35 28 -73z m-1135 -227 l2 -42 -271 -113 c-149 -63 -272 -112 -275 -110 -12
13 -36 137 -41 216 l-6 92 294 0 294 0 3 -43z m1162 -34 c-2 -75 -61 -303 -78
-303 -4 0 -126 49 -272 109 -285 117 -275 110 -251 174 l11 27 295 0 c162 0
295 -3 295 -7z m-1322 -320 c-207 -207 -207 -207 -228 -188 -42 38 -152 236
-139 249 2 2 123 54 269 115 l265 110 20 -40 19 -40 -206 -206z m974 102 c186
-76 253 -108 252 -120 -3 -27 -67 -124 -123 -187 l-54 -60 -208 208 -207 207
25 34 c18 23 31 32 43 28 10 -3 132 -53 272 -110z m-715 53 l30 -33 -110 -267
c-61 -148 -116 -268 -123 -268 -17 0 -151 91 -204 138 l-45 41 75 78 c154 161
335 343 340 343 4 0 20 -15 37 -32z m763 -434 c0 -24 -250 -179 -264 -163 -3
4 -199 469 -217 516 -7 18 -3 24 29 41 l37 19 207 -201 c115 -110 208 -206
208 -212z m-652 379 l22 -5 0 -299 c0 -249 -2 -299 -14 -299 -72 0 -286 62
-286 82 0 6 48 130 108 275 96 237 109 263 127 257 11 -3 30 -8 43 -11z m250
-280 c61 -147 108 -271 103 -276 -13 -13 -191 -47 -248 -47 l-53 0 0 295 0
295 43 0 43 0 112 -267z"/>
<path d="M674 2773 c329 -769 349 -814 365 -811 10 2 77 149 198 438 101 239
183 438 183 442 0 5 -26 8 -58 8 l-57 0 -130 -306 c-71 -168 -133 -308 -136
-310 -3 -2 -66 136 -139 306 l-132 310 -64 0 -63 0 33 -77z"/>
<path d="M1860 2405 l0 -445 255 0 255 0 0 55 0 55 -192 2 -193 3 -3 138 -3
137 186 0 185 0 0 55 0 55 -182 2 -183 3 0 135 0 135 188 3 187 2 0 55 0 55
-250 0 -250 0 0 -445z"/>
<path d="M2870 2405 l0 -445 260 0 260 0 0 55 0 55 -197 2 -198 3 -3 388 -2
387 -60 0 -60 0 0 -445z"/>
<path d="M3840 2405 l0 -445 65 0 65 0 0 445 0 445 -65 0 -65 0 0 -445z"/>
<path d="M4500 2405 l0 -445 60 0 60 0 0 215 c0 118 4 215 8 215 4 0 108 -97
229 -215 l222 -215 83 1 83 0 -238 234 -239 233 173 189 c95 103 182 198 193
211 l19 22 -75 0 -76 0 -184 -200 c-100 -110 -186 -200 -190 -200 -5 0 -8 90
-8 200 l0 200 -60 0 -60 0 0 -445z"/>
<path d="M8460 2406 l0 -446 183 0 c207 0 260 10 328 63 107 83 121 248 27
333 -28 26 -101 64 -123 64 -21 0 -19 17 4 25 32 10 89 81 101 126 28 104 -23
200 -135 250 -44 20 -71 23 -217 27 l-168 4 0 -446z m337 311 c65 -34 80 -148
25 -200 -39 -37 -73 -47 -163 -47 l-79 0 0 128 c0 71 3 132 8 136 12 14 175 0
209 -17z m60 -384 c20 -9 44 -30 54 -47 26 -43 25 -115 -2 -150 -38 -48 -74
-59 -206 -64 l-123 -4 0 141 0 141 121 0 c92 0 129 -4 156 -17z"/>
<path d="M9530 2406 l0 -446 60 0 60 0 0 195 0 195 40 0 c93 0 140 -42 276
-247 l94 -143 70 0 c38 0 70 3 70 6 0 3 -22 38 -49 77 -27 40 -72 108 -101
152 -29 44 -75 104 -104 133 -44 46 -49 54 -34 63 83 47 123 117 122 215 0 62
-4 78 -30 120 -24 39 -43 56 -98 84 -67 34 -69 34 -222 38 l-154 4 0 -446z
m298 319 c72 -29 103 -125 62 -192 -31 -52 -63 -66 -156 -71 l-84 -5 0 142 0
141 70 0 c39 0 86 -7 108 -15z"/>
<path d="M10640 2405 l0 -445 65 0 65 0 0 445 0 445 -65 0 -65 0 0 -445z"/>
<path d="M11220 2795 l0 -54 153 -3 152 -3 3 -387 2 -388 60 0 60 0 0 390 0
390 155 0 155 0 0 55 0 55 -370 0 -370 0 0 -55z"/>
<path d="M12687 2818 c-8 -18 -80 -186 -159 -373 -80 -187 -160 -373 -176
-412 l-31 -73 62 0 63 0 54 130 55 130 194 -2 193 -3 57 -127 56 -128 63 0
c34 0 62 3 62 8 0 4 -87 203 -193 442 l-194 435 -46 3 c-44 3 -47 1 -60 -30z
m121 -306 c33 -75 64 -145 68 -155 6 -16 -5 -17 -131 -17 -76 0 -135 4 -133 9
28 76 125 301 129 301 3 0 33 -62 67 -138z"/>
<path d="M13620 2406 l0 -446 60 0 60 0 2 340 3 341 295 -340 295 -341 53 0
52 0 0 445 0 445 -60 0 -60 0 -2 -342 -3 -342 -295 339 -296 340 -52 3 -52 3
0 -445z"/>
<path d="bababa 2405 l0 -445 60 0 60 0 0 445 0 445 -60 0 -60 0 0 -445z"/>
<path d="M15906 2842 c-4 -6 -340 -791 -373 -870 -4 -10 9 -12 58 -10 l63 3
55 128 54 127 192 0 192 0 59 -130 58 -130 63 0 c35 0 63 2 63 5 0 3 -87 202
-194 442 l-195 438 -44 3 c-25 2 -48 -1 -51 -6z m114 -339 c36 -80 67 -150 68
-155 2 -4 -58 -8 -133 -8 -126 0 -137 1 -131 18 31 82 121 292 125 292 4 0 35
-66 71 -147z"/>
</g>
</svg>
